# xmcd
#
# Track frame offsets:
#	150
#	12019
#	23422
#	35773
#	47511
#	56960
#	66839
#	79163
#	88939
#	98449
#	110305
#	121994
#	133368
#	142508
#	155435
#	166794
#	180018
#	188532
#	199213
#	210430
#	220889
#	229377
#	240321
#	249867
#
# Disc length: 3463 seconds
#
# Revision: 2
# Processed by: cddbd v1.5.2PL0 Copyright (c) Steve Scherf et al.
# Submitted via: audiograbber 1.83.01
#
DISCID=2f0d8518
DTITLE=Clyde McPhatter - Eight Classic Albums  [CD2)
DYEAR=2014
DGENRE=Oldies
TTITLE0=How Many Times
TTITLE1=Why Was I The One You Chose
TTITLE2=Everything's Gonna Be Alright
TTITLE3=Let Me Shake The Hand
TTITLE4=Who's Worried Now
TTITLE5=Ta Ta
TTITLE6=I Need A Love Like Yours
TTITLE7=What's Love To Me
TTITLE8=For All You've Done
TTITLE9=Not Me
TTITLE10=All About Love
TTITLE11=High School Social
TTITLE12=Think Me A KIss
TTITLE13=I Know That Feeling
TTITLE14=Twice As Nice
TTITLE15=(I'm Afraid) The Masquerade Is Over
TTITLE16=Whisper Softly
TTITLE17=This Is Not Goodbye
TTITLE18=Let's Try Again
TTITLE19=Where Did I Make My Mistake
TTITLE20=One Right After Another
TTITLE21=When The Right Time Comes Along
TTITLE22=I Told Myself A Lie
TTITLE23=Take A Step
EXTD=
EXTT0=
EXTT1=
EXTT2=
EXTT3=
EXTT4=
EXTT5=
EXTT6=
EXTT7=
EXTT8=
EXTT9=
EXTT10=
EXTT11=
EXTT12=
EXTT13=
EXTT14=
EXTT15=
EXTT16=
EXTT17=
EXTT18=
EXTT19=
EXTT20=
EXTT21=
EXTT22=
EXTT23=
PLAYORDER=
